# xmcd
#
# Track frame offsets: 
#        150
#        19809
#        35140
#        49901
#        67939
#        90119
#        105882
#        116769
#        132330
#        153730
#        168902
#        181532
#        201716
#
# Disc length: 2957 seconds
#
# Revision: 1
# Processed by: cddbd v1.5.2PL0 Copyright (c) Steve Scherf et al.
# Submitted via: ExactAudioCopy v0.99pb4
#
DISCID=a80b8b0d
DTITLE=Heather Masse - Bird Song
DYEAR=2009
DGENRE=Country
TTITLE0=I Don't Wanna Wake Up Today
TTITLE1=Bird Song
TTITLE2=Our World
TTITLE3=Chosen
TTITLE4=Over The Mountain
TTITLE5=Bathtub
TTITLE6=High Heeled Woman
TTITLE7=Mornings Breaking The Rules
TTITLE8=Orphan Girl
TTITLE9=Time's A Hoax
TTITLE10=Hollywood
TTITLE11=Be My Sailor
TTITLE12=Mittens
EXTD=
EXTT0=
EXTT1=
EXTT2=
EXTT3=
EXTT4=
EXTT5=
EXTT6=
EXTT7=
EXTT8=
EXTT9=
EXTT10=
EXTT11=
EXTT12=
PLAYORDER=
